<?xml version="1.0" encoding="UTF-8"?>
<svg version="1.1" xmlns="http://www.w3.org/2000/svg" width="512" height="512">
<path d="M0 0 C0.75877441 0.20898926 1.51754883 0.41797852 2.29931641 0.63330078 C35.96273123 10.11645309 64.96574327 33.63116867 82.13427734 64.00683594 C100.24821985 97.3300353 103.92140072 134.87686088 93.25 171.25 C82.57356097 205.58468381 61.17819464 233.04355754 29.3112793 250.19042969 C14.26975223 257.93593423 -2.19148696 263.07981566 -19 265 C-19.69593262 265.07976074 -20.39186523 265.15952148 -21.10888672 265.24169922 C-55.05305829 268.78579024 -92.09975115 260.31967158 -119.25 239.0625 C-120.84560686 237.72281699 -122.4290011 236.36845689 -124 235 C-125.24716797 233.93458984 -125.24716797 233.93458984 -126.51953125 232.84765625 C-148.17971862 213.91578741 -161.16068081 189.75053762 -168 162 C-168.26683594 160.93724854 -168.26683594 160.93724854 -168.5390625 159.85302734 C-176.65236753 125.89466034 -169.88863948 89.81973246 -152.26855469 60.04980469 C-140.87040304 41.63200614 -125.55809898 26.15365014 -107 15 C-106.33419922 14.59700684 -105.66839844 14.19401367 -104.98242188 13.77880859 C-93.62537816 7.03727182 -81.69923321 2.54344269 -69 -1 C-67.97398682 -1.29028076 -67.97398682 -1.29028076 -66.92724609 -1.58642578 C-46.2112672 -7.11526338 -20.46451718 -5.86047727 0 0 Z M-113 40 C-113.93585938 40.77085938 -114.87171875 41.54171875 -115.8359375 42.3359375 C-137.92825434 61.4578588 -151.09513914 90.137417 -154 119 C-155.05104523 134.4068971 -154.5478522 149.19689169 -150 164 C-149.649375 165.19109375 -149.29875 166.3821875 -148.9375 167.609375 C-144.02262651 182.69530614 -136.11513073 195.88556369 -126 208 C-125.40574219 208.74636719 -124.81148437 209.49273437 -124.19921875 210.26171875 C-107.00101817 231.15404356 -78.18532011 245.58561728 -51.44140625 248.7890625 C-19.7453122 251.52760503 12.70296727 244.53428174 37.56298828 223.68945312 C41.14592411 220.56547483 44.57734219 217.2977433 48 214 C48.64582031 213.41734375 49.29164063 212.8346875 49.95703125 212.234375 C69.30219223 194.29366365 81.22532138 164.1900913 82.23828125 138.27734375 C82.94565843 104.38378029 72.60260409 72.60394318 49.1418457 47.69262695 C27.55446808 25.48480238 -2.60915275 13.49357395 -33.41650391 12.64599609 C-62.60741299 12.40287986 -90.3892157 21.37569006 -113 40 Z " fill="#000000" transform="translate(203,36)"/>
<path d="M0 0 C2.56824296 0.95826876 5.10477522 1.97545742 7.64023209 3.01740074 C9.08696053 3.5985363 9.08696053 3.5985363 10.5629158 4.19141197 C13.7566205 5.47688282 16.94467114 6.77580711 20.13290787 8.07477379 C22.40031338 8.99035879 24.66807183 9.90507016 26.93616104 10.81896019 C32.94060073 13.24095265 38.94040668 15.67422083 44.93924332 18.11005211 C50.84503472 20.50620605 56.7546393 22.89290825 62.66415787 25.27985191 C69.69032176 28.11839933 76.71617958 30.95768851 83.74026871 33.80136681 C102.62785657 41.44672591 121.53845068 49.0336531 140.46282768 56.58746052 C142.3343595 57.33523115 144.20531223 58.08445294 146.07564735 58.83521175 C151.233561 60.90302328 156.40345048 62.93384575 161.58987808 64.92917442 C162.73508863 65.37461507 163.88029919 65.82005571 165.06021309 66.27899456 C167.2776607 67.14107767 169.49882188 67.99368577 171.72405052 68.83548069 C172.72327978 69.2262243 173.72250904 69.61696791 174.75201797 70.01955223 C175.63693357 70.35894986 176.52184917 70.69834749 177.4335804 71.0480299 C180.02214228 72.44626054 181.17457853 73.7831489 182.70322037 76.27399254 C183.13681412 78.27399254 183.13681412 78.27399254 183.14072037 80.27399254 C183.1600563 80.93399254 183.17939224 81.59399254 183.19931412 82.27399254 C182.45766759 85.2639376 181.0718851 86.2998718 178.70322037 88.27399254 C175.9848058 89.42362403 173.37124119 90.40043828 170.57431412 91.30524254 C169.76391174 91.57815117 168.95350937 91.8510598 168.11854935 92.13223839 C165.46283731 93.02391709 162.80197011 93.89899516 160.14072037 94.77399254 C158.30226854 95.38754603 156.46421848 96.0023046 154.62656021 96.61823082 C151.80329425 97.56402769 148.97967656 98.50864785 146.15445328 99.4485836 C139.85771477 101.54396443 133.57779849 103.68334892 127.30868912 105.85993004 C126.49885071 106.14060326 125.6890123 106.42127647 124.85463333 106.71045494 C121.75203643 107.7861056 118.64961573 108.86220321 115.54938126 109.94464684 C113.43802333 110.68101486 111.32477893 111.41170103 109.21103287 112.14118004 C108.02138931 112.55480797 106.83174576 112.9684359 105.6060524 113.39459801 C102.70322037 114.27399254 102.70322037 114.27399254 99.70322037 114.27399254 C99.31384293 116.18124107 99.31384293 116.18124107 98.91659927 118.12701988 C97.7354356 123.42849187 96.06301482 128.49695893 94.28915787 133.62555504 C93.95582443 134.60148613 93.622491 135.57741722 93.27905655 136.58292198 C92.21659687 139.68983648 91.1474789 142.79441225 90.07822037 145.89899254 C89.38378205 147.92749194 88.68976851 149.9561368 87.99618912 151.98493004 C86.6103772 156.03614652 85.21571525 160.08417029 83.81552505 164.13043785 C82.36105164 168.33958298 80.93928085 172.55818284 79.53622818 176.78473473 C79.18275314 177.83559258 78.82927811 178.88645042 78.46509171 179.96915245 C77.79178664 181.97108639 77.12736779 183.97603856 76.47333145 185.9843502 C73.62282662 194.3906796 73.62282662 194.3906796 69.70322037 197.27399254 C67.70322037 197.77008629 67.70322037 197.77008629 65.70322037 197.71149254 C65.04322037 197.71020348 64.38322037 197.70891441 63.70322037 197.70758629 C61.02627043 197.12723191 59.74801776 196.10303675 57.70322037 194.27399254 C56.3726387 191.78595543 56.3726387 191.78595543 55.1775856 188.74664879 C54.71446976 187.58670906 54.25135391 186.42676933 53.77420425 185.23167992 C53.26995387 183.93333085 52.76582865 182.63493317 52.26181412 181.33649254 C51.71348166 179.95126526 51.16398712 178.56649752 50.61343765 177.18214989 C49.41292078 174.15698408 48.21994324 171.12899097 47.03265762 168.09860802 C44.09664017 160.60499668 41.12742419 153.12450608 38.16302299 145.64208984 C37.07464297 142.89346706 35.98789816 140.1442014 34.90126419 137.39488792 C29.22633203 123.04907652 23.46502303 108.73907889 17.67582893 94.43903542 C16.19214896 90.77352369 14.70984231 87.10745975 13.2280159 83.44119835 C12.73996444 82.23375402 12.25191298 81.0263097 11.74907207 79.78227615 C10.76519492 77.3481268 9.78133677 74.91396976 8.79749775 72.47980499 C6.3517294 66.43033378 3.9026643 60.38223324 1.44708633 54.33673668 C-0.8898166 48.58275913 -3.21758181 42.82516495 -5.53888321 37.06487656 C-6.40284619 34.92582513 -7.27019637 32.7881383 -8.14113235 30.6519165 C-9.34029441 27.7095234 -10.52752749 24.76258161 -11.71206284 21.81427574 C-12.06348123 20.9601812 -12.41489962 20.10608665 -12.77696705 19.22611046 C-14.78231315 14.19170108 -16.05027461 9.70998201 -16.29677963 4.27399254 C-11.99575141 -2.69663941 -7.25185518 -2.29229696 0 0 Z M8.70322037 23.27399254 C10.6873866 30.32625083 13.09615908 37.09615892 15.8482399 43.88239098 C16.25362488 44.89214485 16.65900986 45.90189873 17.07667923 46.94225121 C18.40894007 50.25766006 19.7474168 53.57052014 21.08603287 56.88336754 C22.02462083 59.21519058 22.96283657 61.54716348 23.90069962 63.87927818 C25.86675686 68.76565287 27.835466 73.6509493 29.80673599 78.53522301 C32.30801874 84.73273382 34.8048208 90.93203485 37.299963 97.13202095 C44.76464827 115.68504264 44.76464827 115.68504264 52.2579689 134.22650719 C53.94008256 138.37862327 55.60740844 142.53633787 57.26712418 146.69745445 C58.08273706 148.72726429 58.89850609 150.75701139 59.71445084 152.78668785 C60.08780123 153.73070835 60.46115162 154.67472885 60.84581566 155.64735603 C61.19271887 156.50619015 61.53962208 157.36502426 61.89703751 158.24988365 C62.19882353 159.00591503 62.50060955 159.76194641 62.8115406 160.54088783 C63.58317441 162.46010922 63.58317441 162.46010922 65.70322037 163.27399254 C67.90917774 156.80038553 70.11451096 150.32656612 72.3194313 143.85260582 C73.06798897 141.6549669 73.81668412 139.4573748 74.56552505 137.25983238 C75.64825291 134.08238704 76.7304692 130.90476784 77.81259537 127.72711754 C78.14193069 126.76098534 78.47126602 125.79485313 78.81058121 124.7994442 C81.13656285 117.96701037 83.42713249 111.12319718 85.70322037 104.27399254 C86.19822037 102.78899254 86.19822037 102.78899254 86.70322037 101.27399254 C88.37576675 100.45564842 88.37576675 100.45564842 90.56552505 99.81915855 C91.79112137 99.44671516 91.79112137 99.44671516 93.0414772 99.06674767 C93.91985245 98.80513847 94.79822769 98.54352928 95.70322037 98.27399254 C97.48814016 97.68764378 99.27096629 97.09489058 101.05185318 96.49640465 C101.99603104 96.18275459 102.94020889 95.86910454 103.9129982 95.54594994 C108.14747687 94.13893964 112.38141219 92.73029769 116.61532974 91.32159996 C118.84757459 90.57920548 121.0799977 89.83734678 123.31259537 89.09601402 C126.55265104 88.02003603 129.7920582 86.94212537 133.03134537 85.86383629 C134.02724686 85.53358955 135.02314835 85.20334282 136.04922867 84.86308861 C137.44658249 84.39734177 137.44658249 84.39734177 138.87216568 83.9221859 C139.68663162 83.65143745 140.50109756 83.38068901 141.34024429 83.10173607 C143.82654637 82.23079181 146.26431978 81.26926349 148.70322037 80.27399254 C148.70322037 79.61399254 148.70322037 78.95399254 148.70322037 78.27399254 C148.17427107 78.06344357 147.64532177 77.85289459 147.1003437 77.63596535 C134.07119166 72.44967375 121.04215278 67.26309792 108.01323128 62.07622719 C101.71186788 59.5676343 95.41047019 57.05912762 89.10898209 54.55084801 C83.01799225 52.12635258 76.92713403 49.70152667 70.83631516 47.27660179 C67.27749442 45.85991451 63.71848494 44.44370216 60.15945816 43.02753258 C50.29595251 39.10177895 40.43389821 35.17291228 30.58700943 31.20563316 C29.85464884 30.91094013 29.12228825 30.6162471 28.36773491 30.31262398 C25.14349278 29.01517343 21.92059395 27.71473986 18.70026016 26.4075985 C17.64307785 25.98162376 16.58589554 25.55564903 15.4966774 25.11676598 C14.60594528 24.7556472 13.71521317 24.39452843 12.79748917 24.02246666 C10.75999778 23.16181116 10.75999778 23.16181116 8.70322037 23.27399254 Z " fill="#000000" transform="translate(297.29677963256836,282.72600746154785)"/>
<path d="M0 0 C1.56814453 -0.01643555 1.56814453 -0.01643555 3.16796875 -0.03320312 C10.79911021 0.04007928 10.79911021 0.04007928 13.62799072 2.14863586 C16.18568778 5.44666076 15.98270504 7.57026922 15.95410156 11.71777344 C15.95468567 12.43036819 15.95526978 13.14296295 15.95587158 13.87715149 C15.95309109 16.2258931 15.92200323 18.5733559 15.890625 20.921875 C15.88316243 22.55282905 15.87746957 24.18379207 15.87347412 25.8147583 C15.85821892 30.10248677 15.81893854 34.38967119 15.7746582 38.67718506 C15.73370277 43.05424643 15.71546255 47.43139591 15.6953125 51.80859375 C15.65244377 60.39347852 15.58419435 68.97792154 15.5 77.5625 C17.48974609 77.52791341 19.47949219 77.49332682 21.46923828 77.45874023 C24.6065686 77.61903903 26.19026765 78.45656756 28.5 80.5625 C30.38461324 84.72435424 30.85136967 86.61380188 29.25 90.9375 C27.5 93.5625 27.5 93.5625 25.5 94.5625 C20.41701872 94.84646543 15.33308409 94.87622881 10.24291992 94.91259766 C8.54453826 94.92914824 6.84622599 94.95642685 5.14819336 94.99462891 C2.69608537 95.04949658 0.24560853 95.07128513 -2.20703125 95.0859375 C-2.96240677 95.10860687 -3.71778229 95.13127625 -4.49604797 95.15463257 C-8.50203238 95.13864016 -10.29595674 94.72290917 -13.4831543 92.21728516 C-15.5 89.5625 -15.5 89.5625 -16.0625 86.5625 C-15.37206143 82.88016096 -14.13186072 81.19436072 -11.5 78.5625 C-8.5 77.5625 -8.5 77.5625 -1.5 77.5625 C-1.5 57.4325 -1.5 37.3025 -1.5 16.5625 C-4.8 16.5625 -8.1 16.5625 -11.5 16.5625 C-14.63922618 14.02122167 -15.34128733 12.51477601 -16 8.5625 C-14.44326922 -0.77788467 -7.89592744 -0.18011672 0 0 Z " fill="#000000" transform="translate(159.5,140.4375)"/>
<path d="M0 0 C2.875 1.3125 2.875 1.3125 5 4 C6.39060147 12.75754068 3.94003437 21.9559398 2.17407227 30.50878906 C1.68472901 32.88847536 1.21736441 35.27178062 0.75195312 37.65625 C0.44400119 39.18515681 0.13480083 40.71381281 -0.17578125 42.2421875 C-0.31341385 42.94745575 -0.45104645 43.652724 -0.59284973 44.37936401 C-1.59221898 49.12801338 -2.82867612 53.29395981 -6.75 56.375 C-10.13593927 57.31553869 -12.62201008 56.85985198 -16 56 C-18.4996518 53.34364607 -19.41929751 51.49661348 -19.39453125 47.86328125 C-19.16839492 40.65468972 -17.6208525 33.61085775 -16.17407227 26.56665039 C-15.68554606 24.177946 -15.21787584 21.78578221 -14.75195312 19.39257812 C-14.44394222 17.85912664 -14.13473936 16.32591399 -13.82421875 14.79296875 C-13.68658615 14.08456345 -13.54895355 13.37615814 -13.40715027 12.64628601 C-11.7487147 4.72772915 -8.9545341 -1.07454409 0 0 Z " fill="#000000" transform="translate(265,293)"/>
<path d="M0 0 C1.85921047 2.94374992 2.4288308 4.88770927 2.5 8.375 C1.625 11.0625 1.625 11.0625 -0.5 13.375 C-7.6222279 16.15770784 -14.96009231 17.67774734 -22.44702148 19.16479492 C-24.43264629 19.56153021 -26.41441064 19.97460601 -28.39648438 20.38867188 C-46.6651629 24.05711814 -46.6651629 24.05711814 -51.71069336 21.06323242 C-53.5 19.375 -53.5 19.375 -54.4375 16 C-54.50753007 11.93825613 -54.12297329 10.43513551 -51.5 7.375 C-47.4095127 5.39733668 -43.09837699 4.53675765 -38.671875 3.6484375 C-37.92343323 3.49589508 -37.17499146 3.34335266 -36.40386963 3.18618774 C-34.82427471 2.86609625 -33.24416227 2.54854933 -31.66357422 2.23339844 C-29.26970001 1.75394558 -26.87906324 1.26023557 -24.48828125 0.765625 C-22.94548932 0.45485009 -21.40252549 0.14492706 -19.859375 -0.1640625 C-18.80420685 -0.38432602 -18.80420685 -0.38432602 -17.72772217 -0.60903931 C-4.81909157 -3.13240952 -4.81909157 -3.13240952 0 0 Z " fill="#000000" transform="translate(347.5,247.625)"/>
<path d="M0 0 C2.81880547 0.46304813 4.09655005 1.07331581 5.90234375 3.3125 C8.00542254 10.34196882 5.34912459 15.88285581 2.77734375 22.5 C2.38546875 23.57958984 1.99359375 24.65917969 1.58984375 25.77148438 C-2.20434313 35.75912336 -2.20434313 35.75912336 -7.09765625 38.3125 C-11.01781759 38.3125 -13.26926197 37.86476285 -16.53515625 35.6875 C-18.62787068 32.50657406 -18.58129337 29.97450003 -18.09765625 26.3125 C-17.06941766 22.49716498 -15.73036178 18.82447277 -14.34765625 15.125 C-13.99960938 14.14080078 -13.6515625 13.15660156 -13.29296875 12.14257812 C-12.94492188 11.19447266 -12.596875 10.24636719 -12.23828125 9.26953125 C-11.92407227 8.41335205 -11.60986328 7.55717285 -11.28613281 6.67504883 C-8.57146673 1.27861833 -5.79688866 -0.34543843 0 0 Z " fill="#000000" transform="translate(232.09765625,311.6875)"/>
<path d="M0 0 C3.41639845 1.9739191 4.72268412 3.18538459 6 6.9375 C6 10.76883046 5.51686291 12.10179422 3 15 C-2.199816 18.12481906 -7.93354844 20.27033348 -13.625 22.3125 C-14.71167969 22.72725586 -14.71167969 22.72725586 -15.8203125 23.15039062 C-20.25291639 24.74436141 -23.3268262 25.36996315 -28 24 C-30.375 22.375 -30.375 22.375 -32 20 C-32.5625 16.5625 -32.5625 16.5625 -32 13 C-27.92146857 7.68606278 -22.72573282 5.93216047 -16.5625 3.6875 C-15.1693457 3.14899414 -15.1693457 3.14899414 -13.74804688 2.59960938 C-5.0183839 -0.66236433 -5.0183839 -0.66236433 0 0 Z " fill="#000000" transform="translate(344,214)"/>
<path d="M0 0 C3.45330103 1.65513245 5.41791708 4.06360574 7.4375 7.3125 C8.36592282 11.7482979 8.24157324 15.81885782 5.98828125 19.77734375 C3.43291874 23.07432566 1.08220761 25.14558445 -3 26 C-9.15271727 26 -12.1236648 24.67603966 -16.65234375 20.5703125 C-18.77652402 18.0951807 -19.01035654 15.89022071 -19.3125 12.6875 C-18.88392837 7.63035481 -16.91652797 4.74229815 -13.1953125 1.359375 C-9.12092401 -1.16355595 -4.61287315 -0.7142944 0 0 Z " fill="#000000" transform="translate(170,99)"/>
</svg>
